<?xml version="1.0" standalone="no"?><!DOCTYPE svg PUBLIC "-//W3C//DTD SVG 1.1//EN" "http://www.w3.org/Graphics/SVG/1.1/DTD/svg11.dtd"><svg t="1552692911124" class="icon" style="" viewBox="0 0 1211 1024" version="1.1" xmlns="http://www.w3.org/2000/svg" p-id="1293" xmlns:xlink="http://www.w3.org/1999/xlink" width="236.5234375" height="200"><defs><style type="text/css"></style></defs><path d="M1074.679868 553.390259h-98.186095a39.271878 39.271878 0 0 1 0-78.543756h98.186095a39.271878 39.271878 0 0 1 0 78.543756z m-179.220343-275.508032a39.272244 39.272244 0 0 1-55.540533-55.538338l69.42658-69.425117A39.270781 39.270781 0 1 1 964.882448 208.455282z m-291.38757 490.845995a255.268852 255.268852 0 1 1 255.262635-255.266292c0 140.977941-114.284694 255.266292-255.262635 255.266292z m0-431.992851c-97.600957 0-176.722536 79.121945-176.722536 176.726559s79.121579 176.722536 176.722536 176.722536 176.718879-79.121579 176.718879-176.722536a176.717051 176.717051 0 0 0-176.718879-176.726559z m0-157.086781a39.266758 39.266758 0 0 1-39.270049-39.269318V42.200126a39.271878 39.271878 0 1 1 78.543756 0v98.179146a39.270049 39.270049 0 0 1-39.273707 39.269318zM312.302583 276.955881L242.877831 207.535153A39.273706 39.273706 0 1 1 298.414341 151.9895l69.425118 69.42658a39.271512 39.271512 0 0 1-55.536876 55.539801zM269.60765 512.807307a39.271512 39.271512 0 0 1-39.268952 39.273707H132.162111a39.271878 39.271878 0 1 1 0-78.543756h98.176587a39.259078 39.259078 0 0 1 39.268952 39.270049z m41.768953 236.231034a39.272609 39.272609 0 1 1 55.53907 55.540532l-69.420363 69.422923a39.273341 39.273341 0 0 1-55.544922-55.536875z m291.386107 98.233637a39.275169 39.275169 0 0 1 39.273706 39.270049v98.186095a39.271878 39.271878 0 0 1-78.543756 0v-98.186095a39.272244 39.272244 0 0 1 39.27005-39.270049z m291.767909-97.308388l69.42658 69.430237a39.271878 39.271878 0 1 1-55.540533 55.536875l-69.422923-69.42658a39.271878 39.271878 0 0 1 55.536876-55.540532z m0 0" fill="#0D0408" p-id="1294"></path></svg>