<?xml version="1.0" standalone="no"?><!DOCTYPE svg PUBLIC "-//W3C//DTD SVG 1.1//EN" "http://www.w3.org/Graphics/SVG/1.1/DTD/svg11.dtd"><svg t="1552693000498" class="icon" style="" viewBox="0 0 1210 1024" version="1.1" xmlns="http://www.w3.org/2000/svg" p-id="1641" xmlns:xlink="http://www.w3.org/1999/xlink" width="236.328125" height="200"><defs><style type="text/css"></style></defs><path d="M1164.326877 532.384642h-62.433926c-22.768596 0-41.224069-18.253754-41.224068-40.769284s18.455473-40.769284 41.224068-40.769284h62.433926c22.764928 0 41.224069 18.253754 41.224069 40.769284s-18.45914 40.769284-41.224069 40.769284z m-115.874843-214.065146c-16.155874 15.98643-42.361032 15.98643-58.52424 0a40.605341 40.605341 0 0 1 0-57.87984l43.894097-43.413272c16.159542-15.979828 42.368367-15.979828 58.524241 0a40.607542 40.607542 0 0 1 0 57.881673z m-80.724355 308.036951a224.712619 224.712619 0 0 1 9.913582 66.105215c-0.502464 126.980401-104.989341 229.516103-233.381777 229.024642H179.852837c-62.455564 0.392436-120.329169-32.352092-151.640023-85.800344a170.434384 170.434384 0 0 1 0.155507-172.777994c31.401444-53.38957 89.336665-86.038739 151.790762-85.539943 1.833811 0 3.675691 0.220057 5.512069 0.275072 19.948928-93.062235 84.876837-170.482063 173.66996-207.073926 88.793123-36.584894 190.092837-27.662304 270.957662 23.861547 37.677479-69.231862 112.155874-110.964264 191.56722-107.357891 79.411347 3.612607 149.701318 51.928756 180.802751 124.283966s17.505559 155.939943-34.970774 214.999656h0.029341z m-505.401948-201.286418c-123.028905-0.487794-223.166716 97.753123-223.673582 219.433811a216.884814 216.884814 0 0 0 1.126327 21.745329c-39.079977-20.887106-87.163232-15.554384-120.591404 13.375817s-45.148424 75.354957-29.397456 116.435988c15.748034 41.070029 55.653593 68.137077 100.071794 67.873009 3.374212 0 6.702946-0.190716 10.001604-0.495129v0.495129H724.835759v-0.531805c3.227507 0.190716 6.436676 0.531805 9.704528 0.531805 67.172493-0.066017 127.53788-40.5749 152.422693-102.286304s9.279083-132.184756-39.412264-177.956676c-48.684011-45.77192-120.646418-57.61467-181.69765-29.90212-36.566189-78.571461-116.072894-128.854556-203.527335-128.718854z m349.91679-56.316333c-51.970201 0.007335-99.950029 27.587851-125.682063 72.241146a288.898567 288.898567 0 0 1 21.151175 25.266247 239.592894 239.592894 0 0 1 36.555186-2.813066c80.992092-0.150372 156.284699 41.202063 198.961147 109.284126a140.485318 140.485318 0 0 0 13.859942-60.732149c0-79.110602-64.847221-143.246304-144.845387-143.246304z m-0.113696-122.949685c-22.764928 0-41.220401-18.247152-41.220401-40.763415v-61.755415c0-22.514797 18.455473-40.76965 41.220401-40.769651s41.224069 18.254854 41.224069 40.769651v61.754681a40.560229 40.560229 0 0 1-12.073811 28.830442 41.444126 41.444126 0 0 1-29.150258 11.932974z m-234.306017 72.872344l-43.894097-43.411805a40.612309 40.612309 0 0 1 0-57.880206c16.163209-15.986063 42.364699-15.986063 58.52424 0l43.894098 43.411805a40.606074 40.606074 0 0 1 0 57.880206c-16.159542 15.981295-42.361032 15.981295-58.524241 0z m470.959312 365.518487l43.897765 43.406304a40.613043 40.613043 0 0 1 0 57.886075c-16.159542 15.979828-42.368367 15.979828-58.52424 0l-43.894098-43.376963a40.616344 40.616344 0 0 1-0.018338-57.897077c16.155874-15.998166 42.372034-16.005501 58.538911-0.018339z m0 0" fill="#0D0408" p-id="1642"></path></svg>