<?xml version="1.0" standalone="no"?><!DOCTYPE svg PUBLIC "-//W3C//DTD SVG 1.1//EN" "http://www.w3.org/Graphics/SVG/1.1/DTD/svg11.dtd"><svg t="1552692927402" class="icon" style="" viewBox="0 0 1210 1024" version="1.1" xmlns="http://www.w3.org/2000/svg" p-id="1409" xmlns:xlink="http://www.w3.org/1999/xlink" width="236.328125" height="200"><defs><style type="text/css"></style></defs><path d="M1026.457307 686.791519c-34.526991 100.698223-128.847221 168.29616-234.845158 168.321833H190.817559c-66.524791-0.055014-127.966991-35.76298-161.180241-93.678395a187.858155 187.858155 0 0 1 0.148539-187.089054c33.313375-57.853066 94.808023-93.462006 161.335014-93.406992 1.971347 0 3.873009 0.23106 5.827484 0.289742 18.683599-92.677135 78.170957-171.847152 161.767427-215.287197a309.349593 309.349593 0 0 1 268.359886-8.213639c42.845158-58.448688 111.814785-91.670372 183.993581-88.639817 72.189799 3.028722 138.159312 41.908814 176.009169 103.738682 3.766648-0.207221 7.544298-0.326052 11.36596-0.326052 108.935702 0.010636 199.243553 84.802017 206.626476 193.998854s-70.686074 205.47851-178.613181 220.292035zM491.362292 314.546613c-131.478739 0.005868-238.06533 107.101524-238.065329 239.205593 0 7.856046 0.403438 15.635072 1.136963 23.296734a113.512894 113.512894 0 0 0-128.364562 15.792779c-35.38008 31.519542-47.700722 81.721948-30.967198 126.155186s59.050544 73.865903 106.336092 73.957594c3.376779 0 6.705146-0.165043 10.012607-0.451118v0.451118H770.721375v-0.572149c3.436562 0.201719 6.829112 0.572149 10.31702 0.572149 72.017421-0.058682 136.725272-44.231519 163.30086-111.488367a176.931576 176.931576 0 0 0 12.257192-58.703954c0.088023-2.299599 0.337421-4.536848 0.337421-6.843783 0.23106-60.207679-30.114842-116.377307-80.493295-148.982464a174.857536 174.857536 0 0 0-168.288825-12.05914 239.932883 239.932883 0 0 0-56.187966-77.518854q-4.505673-4.144413-9.198395-8.039427c-1.518395-1.257994-3.011117-2.537994-4.602866-3.755278-3.678625-2.921994-7.518625-5.702785-11.391633-8.403988-1.081948-0.75553-2.130888-1.560206-3.227507-2.303634a236.365387 236.365387 0 0 0-132.181089-40.307163z m496.764699 41.404516a132.899576 132.899576 0 0 0-45.243782 8.032092 154.527175 154.527175 0 0 0-238.487106-56.954499 313.701593 313.701593 0 0 1 47.785444 52.080229 247.573272 247.573272 0 0 1 200.541891 56.463404 250.103931 250.103931 0 0 1 87.267393 189.997479c0 3.564928-0.124699 7.118854-0.267736 10.647106 59.235759-24.793123 92.831175-88.132951 80.298911-151.366419S1052.29937 356.052722 988.126991 355.951129z m0 0" fill="#0D0408" p-id="1410"></path></svg>