<?xml version="1.0" standalone="no"?><!DOCTYPE svg PUBLIC "-//W3C//DTD SVG 1.1//EN" "http://www.w3.org/Graphics/SVG/1.1/DTD/svg11.dtd"><svg t="1552692942708" class="icon" style="" viewBox="0 0 1210 1024" version="1.1" xmlns="http://www.w3.org/2000/svg" p-id="1525" xmlns:xlink="http://www.w3.org/1999/xlink" width="236.328125" height="200"><defs><style type="text/css"></style></defs><path d="M964.77341 850.534693a239.940951 239.940951 0 0 1-52.102235-5.87553v-91.562177a145.844814 145.844814 0 1 0 62.521948-277.561949c-4.514842 0-8.948997 0.267736-13.361146 0.674843 22.288138-166.007931-90.304183-320.060516-255.281146-349.277158s-323.660287 76.786063-359.774258 240.341456a197.930544 197.930544 0 1 0 13.649421 379.096389v69.890201a268.019897 268.019897 0 0 1-83.361375 13.438166c-149.616963 0.161375-271.043851-120.961834-271.205226-270.54212-0.161375-149.572951 121.004378-270.961696 270.623174-271.123072C336.212722 108.63349 514.532493-3.468103 702.149685 20.428653c187.609857 23.898957 332.114155 177.120458 344.939828 365.75945 109.159427 39.859713 173.947966 152.297994 153.662349 266.694785-20.274613 114.389456-119.769857 197.725158-235.978452 197.651805z m-364.693639-26.043782a57.308424 57.308424 0 0 1-114.616848 0c0-31.644241 57.310258-98.956103 57.310258-98.956103s57.30659 67.311862 57.30659 98.956103z m197.974556-114.576504a57.30659 57.30659 0 0 1-114.613181 0c0-31.651576 57.302923-98.963438 57.302923-98.963439s57.310258 67.311862 57.310258 98.963439z m0 239.580057a57.30659 57.30659 0 0 1-114.613181 0c0-31.651576 57.302923-98.959771 57.302923-98.959771s57.310258 67.308195 57.310258 98.959771z m0 0" fill="#0D0408" p-id="1526"></path></svg>